<svg xmlns="http://www.w3.org/2000/svg" viewBox="0 0 100 100">
  <circle cx="50" cy="50" r="45" fill="#0f172a" stroke="#3b82f6" stroke-width="4"/>
  <path d="M50 25 C55 25 55 30 55 35 L55 40 C55 45 50 45 50 45 C50 45 45 45 45 40 L45 35 C45 30 45 25 50 25Z" fill="none" stroke="#60a5fa" stroke-width="3" stroke-linecap="round"/>
  <rect x="44" y="40" width="12" height="20" rx="2" fill="none" stroke="#60a5fa" stroke-width="2.5"/>
  <line x1="35" y1="50" x2="38" y2="50" stroke="#60a5fa" stroke-width="2" stroke-linecap="round"/>
  <line x1="62" y1="50" x2="65" y2="50" stroke="#60a5fa" stroke-width="2" stroke-linecap="round"/>
  <line x1="40" y1="38" x2="43" y2="40" stroke="#60a5fa" stroke-width="2" stroke-linecap="round"/>
  <line x1="60" y1="38" x2="57" y2="40" stroke="#60a5fa" stroke-width="2" stroke-linecap="round"/>
  <line x1="50" y1="60" x2="50" y2="65" stroke="#60a5fa" stroke-width="2.5" stroke-linecap="round"/>
  <line x1="45" y1="65" x2="55" y2="65" stroke="#60a5fa" stroke-width="2.5" stroke-linecap="round"/>
  <path d="M40 70 C40 70 45 75 50 75 C55 75 60 70 60 70" fill="none" stroke="#60a5fa" stroke-width="2" stroke-linecap="round"/>
  <path d="M48 65 L50 72 L52 65" fill="#60a5fa" opacity="0.8"/>
</svg>
